<?xml version="1.0" encoding="UTF-8" standalone="no"?>
<!-- Created with Inkscape (http://www.inkscape.org/) -->

<svg
   xmlns:dc="http://purl.org/dc/elements/1.1/"
   xmlns:cc="http://creativecommons.org/ns#"
   xmlns:rdf="http://www.w3.org/1999/02/22-rdf-syntax-ns#"
   xmlns:svg="http://www.w3.org/2000/svg"
   xmlns="http://www.w3.org/2000/svg"
   xmlns:sodipodi="http://sodipodi.sourceforge.net/DTD/sodipodi-0.dtd"
   xmlns:inkscape="http://www.inkscape.org/namespaces/inkscape"
   width="200mm"
   height="200mm"
   viewBox="0 0 200 200"
   version="1.1"
   id="svg8"
   inkscape:version="0.92.4 (5da689c313, 2019-01-14)"
   sodipodi:docname="logo.svg">
  <defs
     id="defs2" />
  <sodipodi:namedview
     id="base"
     pagecolor="#ffffff"
     bordercolor="#666666"
     borderopacity="1.0"
     inkscape:pageopacity="0.0"
     inkscape:pageshadow="2"
     inkscape:zoom="1.4142136"
     inkscape:cx="362.28847"
     inkscape:cy="413.47451"
     inkscape:document-units="mm"
     inkscape:current-layer="layer1"
     showgrid="false"
     inkscape:window-width="1920"
     inkscape:window-height="1025"
     inkscape:window-x="0"
     inkscape:window-y="27"
     inkscape:window-maximized="1" />
  <metadata
     id="metadata5">
    <rdf:RDF>
      <cc:Work
         rdf:about="">
        <dc:format>image/svg+xml</dc:format>
        <dc:type
           rdf:resource="http://purl.org/dc/dcmitype/StillImage" />
        <dc:title></dc:title>
      </cc:Work>
    </rdf:RDF>
  </metadata>
  <g
     inkscape:label="Layer 1"
     inkscape:groupmode="layer"
     id="layer1"
     transform="translate(0,-97)">
    <g
       aria-label="ADMO"
       style="font-style:normal;font-variant:normal;font-weight:bold;font-stretch:normal;font-size:52.88573456px;line-height:1.25;font-family:sans-serif;-inkscape-font-specification:'sans-serif, Bold';font-variant-ligatures:normal;font-variant-caps:normal;font-variant-numeric:normal;font-feature-settings:normal;text-align:start;letter-spacing:0px;word-spacing:0px;writing-mode:lr-tb;text-anchor:start;fill:#999999;fill-opacity:1;stroke:none;stroke-width:1.32214594"
       id="text126"
       transform="translate(-16.997246,-46.334715)">
      <path
         d="M 58.154643,255.56196 H 42.609129 l -2.453196,7.02389 H 30.162389 L 44.44257,224.03194 h 11.852808 l 14.280182,38.55391 h -9.993545 z m -13.066495,-7.153 h 10.561653 l -5.267915,-15.33893 z"
         style="font-style:normal;font-variant:normal;font-weight:bold;font-stretch:normal;font-size:52.88573456px;font-family:sans-serif;-inkscape-font-specification:'sans-serif, Bold';font-variant-ligatures:normal;font-variant-caps:normal;font-variant-numeric:normal;font-feature-settings:normal;text-align:start;letter-spacing:-4.49792576px;word-spacing:-0.93662697px;writing-mode:lr-tb;text-anchor:start;fill:#999999;stroke-width:1.32214594"
         id="path192"
         inkscape:connector-curvature="0" />
      <path
         d="m 81.106683,231.54646 v 23.52486 h 3.56359 q 6.094254,0 9.29632,-3.0213 3.227889,-3.02131 3.227889,-8.77986 0,-5.73273 -3.202066,-8.72821 -3.202066,-2.99549 -9.322143,-2.99549 z m -9.941898,-7.51452 h 10.484183 q 8.779859,0 13.066495,1.26533 4.31246,1.23951 7.385407,4.23499 2.71143,2.60814 4.02841,6.01679 1.31698,3.40865 1.31698,7.72111 0,4.3641 -1.31698,7.79858 -1.31698,3.40865 -4.02841,6.01678 -3.09877,2.99548 -7.437053,4.26082 -4.338283,1.23951 -13.014849,1.23951 H 71.164785 Z"
         style="font-style:normal;font-variant:normal;font-weight:bold;font-stretch:normal;font-size:52.88573456px;font-family:sans-serif;-inkscape-font-specification:'sans-serif, Bold';font-variant-ligatures:normal;font-variant-caps:normal;font-variant-numeric:normal;font-feature-settings:normal;text-align:start;letter-spacing:-4.49792576px;word-spacing:-0.93662697px;writing-mode:lr-tb;text-anchor:start;fill:#999999;stroke-width:1.32214594"
         id="path194"
         inkscape:connector-curvature="0" />
      <path
         d="m 110.56615,224.03194 h 12.65333 l 8.77986,20.63267 8.8315,-20.63267 h 12.6275 v 38.55391 h -9.39961 v -28.19884 l -8.88315,20.7876 h -6.30084 l -8.88315,-20.7876 v 28.19884 h -9.42544 z"
         style="font-style:normal;font-variant:normal;font-weight:bold;font-stretch:normal;font-size:52.88573456px;font-family:sans-serif;-inkscape-font-specification:'sans-serif, Bold';font-variant-ligatures:normal;font-variant-caps:normal;font-variant-numeric:normal;font-feature-settings:normal;text-align:start;letter-spacing:-4.49792576px;word-spacing:-0.93662697px;writing-mode:lr-tb;text-anchor:start;fill:#999999;stroke-width:1.32214594"
         id="path196"
         inkscape:connector-curvature="0" />
      <path
         d="m 176.35874,230.53936 q -4.54487,0 -7.04971,3.35701 -2.50485,3.357 -2.50485,9.45126 0,6.06843 2.50485,9.42543 2.50484,3.35701 7.04971,3.35701 4.57069,0 7.07553,-3.35701 2.50484,-3.357 2.50484,-9.42543 0,-6.09426 -2.50484,-9.45126 -2.50484,-3.35701 -7.07553,-3.35701 z m 0,-7.20465 q 9.29632,0 14.56423,5.31957 5.26792,5.31956 5.26792,14.69335 0,9.34796 -5.26792,14.66753 -5.26791,5.31956 -14.56423,5.31956 -9.2705,0 -14.56424,-5.31956 -5.26791,-5.31957 -5.26791,-14.66753 0,-9.37379 5.26791,-14.69335 5.29374,-5.31957 14.56424,-5.31957 z"
         style="font-style:normal;font-variant:normal;font-weight:bold;font-stretch:normal;font-size:52.88573456px;font-family:sans-serif;-inkscape-font-specification:'sans-serif, Bold';font-variant-ligatures:normal;font-variant-caps:normal;font-variant-numeric:normal;font-feature-settings:normal;text-align:start;letter-spacing:-4.49792576px;word-spacing:-0.93662697px;writing-mode:lr-tb;text-anchor:start;fill:#999999;stroke-width:1.32214594"
         id="path198"
         inkscape:connector-curvature="0" />
    </g>
    <path
       style="fill:#ffffff;fill-opacity:1;stroke:none;stroke-width:0.22749297"
       d="m 3.3787704,181.18393 v 1.99987 1.99988 1.99988 2.0004 1.99987 1.99988 1.99988 2.00039 H 16.61745 v -2.00039 h 180.00378 v -1.99988 H 16.61745 v -1.99988 h 180.00378 v -1.99987 H 16.61745 v -2.0004 h 180.00378 v -1.99988 H 16.61745 v -1.99988 h 180.00378 v -1.99987 z"
       id="rect138"
       inkscape:connector-curvature="0" />
    <path
       inkscape:connector-curvature="0"
       id="path206"
       d="m 24.706879,225.52394 v 1.99987 1.99988 1.99988 2.0004 1.99987 1.99988 1.99988 2.00039 H 37.945558 V 239.5236 H 217.94934 v -1.99988 H 37.945558 v -1.99988 H 217.94934 v -1.99987 H 37.945558 v -2.0004 H 217.94934 v -1.99988 H 37.945558 v -1.99988 H 217.94934 v -1.99987 z"
       style="fill:#ffffff;fill-opacity:1;stroke:none;stroke-width:0.22749297" />
  </g>
</svg>
